<!-- Generated by IcoMoon.io -->
<svg version="1.1" xmlns="http://www.w3.org/2000/svg" width="32" height="32" viewBox="0 0 32 32">
<title>facebook</title>
<path fill="#fff" d="M18.752 9.847l-1.238-0.048c-1.533 0-1.661 0.831-1.661 1.683l-0.005 1.872c0 0.138 0.056 0.274 0.155 0.374s0.234 0.154 0.373 0.154h2.41v1.905h-2.407c-0.291 0-0.528 0.236-0.529 0.528l-0.001 7.404h-1.997v-7.402c0-0.292-0.198-0.528-0.49-0.528h-1.483v-1.905h1.483c0.142 0 0.274-0.055 0.374-0.155 0.098-0.098 0.117-0.233 0.117-0.373v-2.127c0-2.212 0.448-3.267 2.794-3.267h2.106v1.885h0.001zM19.281 6.94h-2.635c-3.351-0.032-3.782 2.042-3.782 4.291v1.632h-1.48c-0.291-0.033-0.528 0.202-0.494 0.494v2.96c-0.034 0.291 0.203 0.527 0.494 0.494h1.48v7.402c-0.029 0.291 0.206 0.527 0.497 0.494h3.015c0.292 0.033 0.528-0.202 0.434-0.494l0.002-7.401h2.469c0.291 0.033 0.528-0.202 0.493-0.494v-2.96c0.035-0.291-0.201-0.527-0.493-0.494h-2.473l0.003-1.48c0.098-0.631 0.098-0.528 0.681-0.494h1.765c0.137-0.030 0.283-0.016 0.386-0.113 0.103-0.101 0.163-0.236 0.129-0.381v-2.96c0.035-0.292-0.201-0.527-0.492-0.495z"></path>
</svg>
