<!-- Generated by IcoMoon.io -->
<svg version="1.1" xmlns="http://www.w3.org/2000/svg" width="32" height="32" viewBox="0 0 32 32">
<title>twitter</title>
<path fill="#fff" d="M23.594 13.959c-0.036 5.030-3.952 9.302-9.371 9.302-1.791 0-3.535-0.513-5.044-1.48-0.371-0.234-0.529-0.694-0.381-1.109 0.148-0.408 0.552-0.657 0.995-0.618 0.656 0.078 1.329 0.025 1.963-0.151-0.626-0.478-1.102-1.14-1.348-1.91-0.058-0.179-0.060-0.367-0.003-0.551-0.687-0.72-1.082-1.681-1.082-2.695 0-0.26 0.108-0.517 0.296-0.699-0.178-0.453-0.271-0.938-0.271-1.433 0-0.691 0.182-1.368 0.526-1.959 0.154-0.269 0.43-0.443 0.749-0.47 0.307-0.018 0.605 0.108 0.793 0.344 1.115 1.365 2.673 2.293 4.384 2.625 0.196-1.97 1.863-3.512 3.884-3.512 0.881 0 1.738 0.301 2.425 0.846 0.401-0.118 0.781-0.285 1.141-0.499 0.334-0.196 0.755-0.167 1.069 0.077 0.301 0.246 0.423 0.648 0.304 1.018-0.008 0.024-0.016 0.049-0.024 0.073 0.092 0.054 0.176 0.124 0.246 0.209 0.271 0.319 0.298 0.783 0.062 1.13-0.369 0.551-0.81 1.041-1.312 1.46zM10.643 17.033c-0.004 0.004-0.007 0.006-0.008 0.007 0.003-0.002 0.006-0.005 0.008-0.007zM24.15 11.985c-0.013-0.037-0.024-0.039-0.035-0.035l-1.176 0.485 0.598-1.123c0.088-0.166 0.159-0.333 0.214-0.505-0.014-0.033-0.029-0.034-0.037-0.030-0.501 0.298-1.040 0.519-1.609 0.659l-0.236 0.058-0.18-0.163c-0.548-0.496-1.267-0.774-2.006-0.774-1.648 0-2.989 1.341-2.989 2.989 0 0.045 0 0.045 0.001 0.085 0 0.012 0.010 0.205 0.028 0.579l-0.54-0.067c-2.138-0.267-4.105-1.355-5.48-3.038-0.302 0.463-0.441 0.981-0.441 1.511 0 0.497 0.122 0.98 0.353 1.412l0.308 0.576-0.647 0.092c-0.027 0.013-0.040 0.035-0.040 0.051 0 0.871 0.382 1.692 1.034 2.259l0.357 0.31-0.322 0.346c-0.030 0.030-0.032 0.039-0.029 0.051 0.27 0.843 0.898 1.518 1.709 1.852l0.934 0.385-0.905 0.448c-1.015 0.502-2.194 0.701-3.316 0.566-0.022-0.002-0.037 0.007-0.040 0.017 1.376 0.904 2.949 1.366 4.565 1.366 4.919 0 8.457-3.884 8.457-8.457v-0.372l0.176-0.137c0.499-0.389 0.934-0.857 1.291-1.391l0.38 0.254-0.378-0.258z"></path>
</svg>
