<!-- Generated by IcoMoon.io -->
<svg version="1.1" xmlns="http://www.w3.org/2000/svg" width="32" height="32" viewBox="0 0 32 32">
<title>user</title>
<path fill="white" d="M16 4.5c2.9 0 5.2 2.5 5.2 5.5 0 1.9-0.9 3.5-2.2 4.5-0.4 0.3-0.3 0.9 0.1 1 3.1 0.9 5.6 3.7 6 7.2v3.9c0.1 0.5-0.4 1-0.9 1h-16.4c-0.6 0-1-0.4-0.9-1v-3.9c0.4-3.5 2.8-6.2 6-7.2 0.4-0.1 0.5-0.7 0.1-1-1.3-1-2.2-2.6-2.2-4.5 0-3 2.3-5.5 5.2-5.5zM16 3.3c-3.5 0-6.4 3-6.4 6.7 0 1.8 0.7 3.5 1.8 4.7-3.1 1.4-5.3 4.3-5.8 7.8v4c0 0.5 0.1 1.1 0.5 1.5 0.4 0.5 1 0.7 1.6 0.7h16.4c0.6 0 1.2-0.3 1.6-0.7s0.5-1 0.5-1.5v-4c-0.4-3.5-2.6-6.5-5.8-7.8 1.2-1.2 1.8-2.9 1.8-4.7 0.2-3.7-2.7-6.7-6.2-6.7v0z"></path>
</svg>
