<!-- Generated by IcoMoon.io -->
<svg version="1.1" xmlns="http://www.w3.org/2000/svg" width="32" height="32" viewBox="0 0 32 32">
<title>youtube</title>
<path fill="#fff" d="M26.346 12.725c0.055 0.551 0.091 1.138 0.112 1.725 0.013 0.352 0.018 0.627 0.018 0.788 0 0.159-0.004 0.432-0.015 0.783-0.019 0.585-0.052 1.17-0.105 1.719-0.073 0.76-0.176 1.39-0.319 1.857-0.284 0.939-1.221 1.705-2.292 1.957-0.641 0.148-1.939 0.241-3.745 0.296-1.402 0.043-2.841 0.056-3.952 0.054-0.069-0-0.069-0-0.155 0-0.393 0.001-0.894 0-1.464-0.005-0.839-0.007-1.666-0.022-2.44-0.045-1.807-0.054-3.105-0.148-3.749-0.302-1.069-0.255-2.032-1.025-2.313-1.955-0.143-0.472-0.243-1.099-0.309-1.854-0.076-0.867-0.099-1.756-0.094-2.462 0-0.046 0-0.046 0-0.088-0.005-0.706 0.018-1.595 0.094-2.462 0.066-0.754 0.165-1.382 0.308-1.853 0.283-0.936 1.239-1.703 2.317-1.957 0.641-0.148 1.939-0.241 3.745-0.296 1.402-0.043 2.841-0.056 3.952-0.054 0.308 0 0.752 0.002 1.322 0.009 0.951 0.010 1.902 0.029 2.791 0.059 1.841 0.061 3.161 0.157 3.806 0.306 1.045 0.246 1.876 0.981 2.164 1.934 0.143 0.469 0.247 1.094 0.321 1.846zM24.931 11.211c-0.166-0.551-0.672-0.998-1.33-1.153-0.541-0.125-1.826-0.219-3.584-0.277-0.879-0.029-1.822-0.048-2.766-0.058-0.566-0.006-1.006-0.008-1.259-0.008-1.154-0.002-2.582 0.011-3.969 0.053-1.721 0.053-2.983 0.143-3.52 0.267-0.707 0.166-1.329 0.666-1.483 1.176-0.116 0.38-0.204 0.939-0.264 1.621-0.072 0.824-0.094 1.681-0.089 2.354 0 0.038 0 0.038 0 0.060-0 0.007-0 0.007-0 0.044-0.005 0.673 0.017 1.53 0.089 2.354 0.060 0.682 0.148 1.241 0.264 1.622 0.152 0.504 0.783 1.007 1.485 1.175 0.537 0.128 1.798 0.219 3.518 0.271 0.765 0.023 1.584 0.037 2.416 0.044 0.565 0.005 1.062 0.006 1.451 0.005 0.084-0 0.084-0 0.107-0 1.154 0.002 2.582-0.011 3.969-0.053 1.721-0.053 2.983-0.143 3.52-0.267 0.698-0.164 1.302-0.658 1.459-1.177 0.117-0.38 0.209-0.944 0.275-1.633 0.050-0.522 0.082-1.084 0.1-1.646 0.011-0.338 0.014-0.599 0.014-0.744-0.001-0.148-0.005-0.411-0.018-0.749-0.020-0.565-0.055-1.129-0.107-1.653-0.068-0.684-0.161-1.245-0.278-1.628z"></path>
<path fill="#fff" d="M13.628 19.119v-7.763l6.143 3.881-6.143 3.881zM14.771 17.046l2.861-1.808-2.861-1.808v3.615z"></path>
</svg>
